# xmcd CD database file
#
# Track frame offsets:
#	150
#	13191
#	26659
#	37737
#	50593
#	62652
#	72604
#	83689
#	93691
#	104622
#	114230
#	125924
#	138786
#	151797
#	162795
#	174416
#	189357
#	200625
#	210327
#	220738
#	231031
#	241645
#	251750
#	263096
#	274087
#	287222
#	300034
#	313364
#
# Disc length: 4333 seconds
#
# Revision: 0
# Processed by: cddbd v1.5.2PL0 Copyright (c) Steve Scherf et al.
# Submitted via: CDex 1.51
#
DISCID=8610eb1c
DTITLE=Ed Camp and Associates - Ed Camp and Associates
DYEAR=1900
DGENRE=Country
TTITLE0=Ed Camp/You Bet Your Bottom Dollar That She's Mine
TTITLE1=Ed Camp/You've Gotta Cry
TTITLE2=Ed Camp/I'm Such A Fool About You
TTITLE3=Ed Camp/One More Tomorrow
TTITLE4=Ed Camp/I Never Dreamed
TTITLE5=Ed Camp/Hillbilly Dumpling
TTITLE6=Ed Camp/Counterfeit Love
TTITLE7=Ed Camp/No Regrets
TTITLE8=Ed Camp/Alone Tonight
TTITLE9=Ed Camp/Tie A String Around Your Finger
TTITLE10=Ed Camp/Magnolia Waltz
TTITLE11=Ed Camp/I'm Tired Of Love
TTITLE12=Ed Camp/Oooh, How I Love You
TTITLE13=Ed Camp/If I Catch You Flirtin' With My Baby
TTITLE14=Ed Camp/The Wedding Is Starting
TTITLE15=Ed Camp/What A Fool I Was To Cry Over You
TTITLE16=Ed Camp/Sure Of Your Heart
TTITLE17=Ed Camp/I'm Gonna Put The Wammy On You
TTITLE18=Buddy Attaway/Why Should I
TTITLE19=Buddy Attaway/Why Did I Leave Cloutchville
TTITLE20=Buddy Attaway/Doubtful Heart
TTITLE21=Buddy Attaway/Rock-Away-Baby On The Bayou
TTITLE22=Little Pal Hardy/All My Life
TTITLE23=Little Pal HardyRed Lips And Poker Chips
TTITLE24=David Craig/Checker Game
TTITLE25=David Craig/Replace My Heart
TTITLE26=Eddie Dale/Okefenokee
TTITLE27=Eddie Dale/How Much Can A Heart Take
EXTD=
EXTT0=
EXTT1=
EXTT2=
EXTT3=
EXTT4=
EXTT5=
EXTT6=
EXTT7=
EXTT8=
EXTT9=
EXTT10=
EXTT11=
EXTT12=
EXTT13=
EXTT14=
EXTT15=
EXTT16=
EXTT17=
EXTT18=
EXTT19=
EXTT20=
EXTT21=
EXTT22=
EXTT23=
EXTT24=
EXTT25=
EXTT26=
EXTT27=
PLAYORDER=
